<svg width="47" height="20" viewBox="0 0 47 20" fill="none" xmlns="http://www.w3.org/2000/svg">
<path d="M13 20V17.025C13 16.4229 13.1367 15.8695 13.4102 15.3648C13.6836 14.8602 14.0469 14.475 14.5 14.2094C15.4687 13.6604 16.4531 13.2487 17.4531 12.9742C18.4531 12.6997 19.4687 12.5625 20.5 12.5625C21.5313 12.5625 22.5469 12.6997 23.5469 12.9742C24.5469 13.2487 25.5313 13.6604 26.5 14.2094C26.9531 14.475 27.3164 14.8602 27.5898 15.3648C27.8633 15.8695 28 16.4229 28 17.025V20H13ZM20.5 11.5C19.4687 11.5 18.5859 11.0839 17.8516 10.2516C17.1172 9.41927 16.75 8.41875 16.75 7.25C16.75 6.08125 17.1172 5.08073 17.8516 4.24844C18.5859 3.41615 19.4687 3 20.5 3C21.5313 3 22.4141 3.41615 23.1484 4.24844C23.8828 5.08073 24.25 6.08125 24.25 7.25C24.25 8.41875 23.8828 9.41927 23.1484 10.2516C22.4141 11.0839 21.5313 11.5 20.5 11.5ZM14.875 17.875H26.125V17.025C26.125 16.8302 26.082 16.6531 25.9961 16.4937C25.9102 16.3344 25.7969 16.2104 25.6562 16.1219C24.8125 15.6438 23.9609 15.2852 23.1016 15.0461C22.2422 14.807 21.375 14.6875 20.5 14.6875C19.625 14.6875 18.7578 14.807 17.8984 15.0461C17.0391 15.2852 16.1875 15.6438 15.3438 16.1219C15.2031 16.2104 15.0898 16.3344 15.0039 16.4937C14.918 16.6531 14.875 16.8302 14.875 17.025V17.875ZM20.5 9.375C21.0156 9.375 21.457 9.16693 21.8242 8.75078C22.1914 8.33464 22.375 7.83438 22.375 7.25C22.375 6.66562 22.1914 6.16536 21.8242 5.74922C21.457 5.33307 21.0156 5.125 20.5 5.125C19.9844 5.125 19.543 5.33307 19.1758 5.74922C18.8086 6.16536 18.625 6.66562 18.625 7.25C18.625 7.83438 18.8086 8.33464 19.1758 8.75078C19.543 9.16693 19.9844 9.375 20.5 9.375Z" fill="#1C1B1F"/>
<path d="M29 20V16.5C29 15.7917 29.1641 15.1406 29.4922 14.5469C29.8203 13.9531 30.2563 13.5 30.8 13.1875C31.9625 12.5417 33.1437 12.0573 34.3438 11.7344C35.5438 11.4115 36.7625 11.25 38 11.25C39.2375 11.25 40.4562 11.4115 41.6562 11.7344C42.8563 12.0573 44.0375 12.5417 45.2 13.1875C45.7438 13.5 46.1797 13.9531 46.5078 14.5469C46.8359 15.1406 47 15.7917 47 16.5V20H29ZM38 10C36.7625 10 35.7031 9.51042 34.8219 8.53125C33.9406 7.55208 33.5 6.375 33.5 5C33.5 3.625 33.9406 2.44792 34.8219 1.46875C35.7031 0.489583 36.7625 0 38 0C39.2375 0 40.2969 0.489583 41.1781 1.46875C42.0594 2.44792 42.5 3.625 42.5 5C42.5 6.375 42.0594 7.55208 41.1781 8.53125C40.2969 9.51042 39.2375 10 38 10ZM31.25 17.5H44.75V16.5C44.75 16.2708 44.6984 16.0625 44.5953 15.875C44.4922 15.6875 44.3563 15.5417 44.1875 15.4375C43.175 14.875 42.1531 14.4531 41.1219 14.1719C40.0906 13.8906 39.05 13.75 38 13.75C36.95 13.75 35.9094 13.8906 34.8781 14.1719C33.8469 14.4531 32.825 14.875 31.8125 15.4375C31.6437 15.5417 31.5078 15.6875 31.4047 15.875C31.3016 16.0625 31.25 16.2708 31.25 16.5V17.5ZM38 7.5C38.6188 7.5 39.1484 7.25521 39.5891 6.76562C40.0297 6.27604 40.25 5.6875 40.25 5C40.25 4.3125 40.0297 3.72396 39.5891 3.23438C39.1484 2.74479 38.6188 2.5 38 2.5C37.3812 2.5 36.8516 2.74479 36.4109 3.23438C35.9703 3.72396 35.75 4.3125 35.75 5C35.75 5.6875 35.9703 6.27604 36.4109 6.76562C36.8516 7.25521 37.3812 7.5 38 7.5Z" fill="#1C1B1F"/>
<path d="M1 18.375V18.875H1.5H10.5H11V18.375V17.725C11 17.4957 10.9461 17.2748 10.8324 17.0731C10.7241 16.8811 10.5742 16.7212 10.3828 16.606L10.3731 16.6001L10.3631 16.5947C9.65616 16.2118 8.93826 15.9222 8.20974 15.7285C7.48101 15.5347 6.74408 15.4375 6 15.4375C5.25592 15.4375 4.51899 15.5347 3.79026 15.7285C3.06174 15.9222 2.34384 16.2118 1.63686 16.5947L1.62689 16.6001L1.61717 16.606C1.42579 16.7212 1.27594 16.8811 1.16764 17.0731C1.05386 17.2748 1 17.4957 1 17.725V18.375ZM0.5 19.5V17.725C0.5 17.3476 0.588625 17.0099 0.763111 16.702C0.939378 16.391 1.16537 16.1651 1.44146 16.0097C2.18248 15.6087 2.93168 15.3098 3.68939 15.111C4.44807 14.9119 5.21793 14.8125 6 14.8125C6.78207 14.8125 7.55193 14.9119 8.31061 15.111C9.06832 15.3098 9.81751 15.6086 10.5585 16.0097C10.8346 16.1651 11.0606 16.391 11.2369 16.702C11.4114 17.0099 11.5 17.3476 11.5 17.725V19.5H0.5ZM6 13C5.32221 13 4.74682 12.7459 4.24865 12.2062C3.74936 11.6653 3.5 11.0225 3.5 10.25C3.5 9.47752 3.74936 8.83473 4.24865 8.29383C4.74682 7.75414 5.32221 7.5 6 7.5C6.67779 7.5 7.25318 7.75414 7.75135 8.29383C8.25064 8.83473 8.5 9.47752 8.5 10.25C8.5 11.0225 8.25064 11.6653 7.75135 12.2062C7.25318 12.7459 6.67779 13 6 13ZM6 12.375C6.55971 12.375 7.0437 12.1518 7.42678 11.7368C7.80874 11.323 8 10.8181 8 10.25C8 9.68185 7.80874 9.17699 7.42678 8.7632C7.0437 8.3482 6.55971 8.125 6 8.125C5.44029 8.125 4.9563 8.3482 4.57322 8.7632C4.19126 9.17699 4 9.68185 4 10.25C4 10.8181 4.19126 11.323 4.57322 11.7368C4.9563 12.1518 5.44029 12.375 6 12.375Z" fill="#1C1B1F" stroke="black"/>
</svg>
