<svg width="24" height="24" viewBox="0 0 24 24" fill="none" xmlns="http://www.w3.org/2000/svg">
<path fill-rule="evenodd" clip-rule="evenodd" d="M5.28611 4.47423C5 5.05178 5 5.80786 5 7.32V16.68C5 18.1922 5 18.9482 5.28611 19.5258C5.53778 20.0338 5.93935 20.4469 6.43328 20.7057C6.99479 21 7.72986 21 9.2 21H14.8C16.2702 21 17.0052 21 17.5667 20.7057C18.0607 20.4469 18.4622 20.0338 18.7139 19.5258C19 18.9482 19 18.1922 19 16.68V10.02C19 9.76797 19 9.64196 18.9523 9.5457C18.9104 9.46103 18.8435 9.39219 18.7611 9.34905C18.9523 9 18.745 9 18.5 9H16.5C14.567 9 13.5 7.48823 13.5 5.5L14 3.5C14 3.24797 12.875 3.34196 12.8273 3.2457C12.7854 3.16103 12.7185 3.09219 12.6361 3.04905C12.5425 3 12.42 3 12.175 3H9.2C7.72986 3 6.99479 3 6.43328 3.29428C5.93935 3.55314 5.53778 3.96619 5.28611 4.47423Z" fill="#222222"/>
<path d="M14 3.70711C14 3.31658 14.3166 3 14.7071 3C14.8946 3 15.0745 3.0745 15.2071 3.20711L18.7929 6.79289C18.9255 6.9255 19 7.10536 19 7.29289C19 7.68342 18.6834 8 18.2929 8H16C14.8954 8 14 7.10457 14 6V3.70711Z" fill="#222222"/>
<path fill-rule="evenodd" clip-rule="evenodd" d="M14.6911 2.11058C14.2284 1.9995 13.7487 1.99973 13.1137 2.00003L9.75869 2.00006C8.95372 2.00005 8.28936 2.00004 7.74817 2.04426C7.18607 2.09018 6.66937 2.18875 6.18404 2.43604C5.43139 2.81953 4.81947 3.43144 4.43598 4.18409C4.18868 4.66943 4.09012 5.18612 4.04419 5.74822C3.99998 6.28941 3.99999 6.95376 4 7.75872V16.2413C3.99999 17.0462 3.99998 17.7106 4.04419 18.2518C4.09012 18.8139 4.18868 19.3306 4.43598 19.8159C4.81947 20.5686 5.43139 21.1805 6.18404 21.564C6.66937 21.8113 7.18607 21.9098 7.74817 21.9558C8.28936 22 8.95371 22 9.75867 22H14.2413C15.0463 22 15.7106 22 16.2518 21.9558C16.8139 21.9098 17.3306 21.8113 17.816 21.564C18.5686 21.1805 19.1805 20.5686 19.564 19.8159C19.8113 19.3306 19.9099 18.8139 19.9558 18.2518C20 17.7106 20 17.0462 20 16.2413V8.88637C20.0003 8.25139 20.0006 7.77158 19.8895 7.30889C19.7915 6.90076 19.6299 6.51058 19.4106 6.15269C19.1619 5.74697 18.8225 5.40786 18.3733 4.95908L17.041 3.62677C16.5922 3.17755 16.2531 2.83813 15.8474 2.5895C15.4895 2.37019 15.0993 2.20857 14.6911 2.11058ZM13 4.00005H9.79999C8.94341 4.00005 8.36112 4.00083 7.91103 4.0376C7.47261 4.07342 7.24841 4.13835 7.09201 4.21804C6.7157 4.40979 6.40973 4.71575 6.21799 5.09207C6.1383 5.24846 6.07337 5.47267 6.03755 5.91108C6.00078 6.36117 6 6.94346 6 7.80003V16.2C6 17.0565 6.00078 17.6388 6.03755 18.0889C6.07337 18.5273 6.1383 18.7515 6.21799 18.9079C6.40973 19.2843 6.7157 19.5902 7.09201 19.782C7.24841 19.8617 7.47261 19.9266 7.91103 19.9624C8.36112 19.9992 8.94341 20 9.79999 20H14.2C15.0566 20 15.6389 19.9992 16.089 19.9624C16.5274 19.9266 16.7516 19.8617 16.908 19.782C17.2843 19.5902 17.5903 19.2843 17.782 18.9079C17.8617 18.7515 17.9266 18.5273 17.9624 18.0889C17.9992 17.6388 18 17.0565 18 16.2V8.99997H16C14.3431 8.99997 13 7.65682 13 5.99998V4.00005ZM17.5599 6.99998C17.4397 6.85788 17.2478 6.66209 16.887 6.30126L15.6988 5.11305C15.3379 4.75217 15.1421 4.56025 15 4.44008V5.99998C15 6.55226 15.4477 6.99998 16 6.99998H17.5599Z" fill="#C22424"/>
</svg>
