<svg width="24" height="24" viewBox="0 0 24 24" fill="none" xmlns="http://www.w3.org/2000/svg">
<path d="M4.77248 3.86503L4.77248 3.86502C5.01217 3.39462 5.39462 3.01217 5.86502 2.77248L5.86503 2.77248C6.10366 2.65089 6.40098 2.57756 6.87032 2.53921C7.34549 2.50039 7.95167 2.5 8.8 2.5H12.2C12.3482 2.5 12.4294 2.50039 12.4877 2.50515C12.49 2.50534 12.4922 2.50554 12.4943 2.50573C12.4945 2.5078 12.4947 2.51 12.4948 2.51232C12.4996 2.57061 12.5 2.65173 12.5 2.8V5C12.5 7.48529 14.5148 9.5 17 9.5H19.2C19.3483 9.5 19.4294 9.50039 19.4877 9.50515C19.49 9.50534 19.4922 9.50554 19.4943 9.50573C19.4945 9.5078 19.4947 9.51 19.4948 9.51232C19.4996 9.57061 19.5 9.65173 19.5 9.8V17.2C19.5 18.0484 19.4996 18.6545 19.4608 19.1297C19.4224 19.599 19.3491 19.8963 19.2275 20.135L19.6641 20.3575L19.2275 20.135C18.9878 20.6054 18.6054 20.9878 18.135 21.2275L18.362 21.673L18.135 21.2275C17.8963 21.3491 17.599 21.4224 17.1297 21.4608C16.6545 21.4996 16.0484 21.5 15.2 21.5H8.8C7.95167 21.5 7.34549 21.4996 6.87032 21.4608C6.40099 21.4224 6.10367 21.3491 5.86504 21.2275L5.86501 21.2275C5.3946 20.9878 5.01216 20.6054 4.77249 20.135C4.65089 19.8963 4.57756 19.599 4.53921 19.1297C4.50039 18.6545 4.5 18.0484 4.5 17.2V6.8C4.5 5.95167 4.50039 5.34549 4.53921 4.87032C4.57756 4.40098 4.65089 4.10366 4.77248 3.86503Z" stroke="black"/>
<path d="M15.8535 2.56065L15.8535 2.56066L19.4393 6.14643C19.4393 6.14643 19.4393 6.14644 19.4393 6.14644C19.4782 6.18529 19.5 6.23798 19.5 6.29289C19.5 6.40727 19.4073 6.5 19.2929 6.5H17C16.1715 6.5 15.5 5.82843 15.5 5V2.70711C15.5 2.59273 15.5927 2.5 15.7071 2.5C15.762 2.5 15.8147 2.52183 15.8535 2.56065Z" stroke="black"/>
</svg>
